<svg width="512" height="512" viewBox="0 0 512 512" fill="none" xmlns="http://www.w3.org/2000/svg">
<g clip-path="url(#clip0_240_21)">
<path d="M498.101 5.59992C508.201 12.5999 513.501 24.6999 511.601 36.7999L447.601 452.8C446.101 462.5 440.201 471 431.601 475.8C423.001 480.6 412.701 481.2 403.601 477.4L284.001 427.7L215.501 501.8C206.601 511.5 192.601 514.7 180.301 509.9C168.001 505.1 160.001 493.2 160.001 480V396.4C160.001 392.4 161.501 388.6 164.201 385.7L331.801 202.8C337.601 196.5 337.401 186.8 331.401 180.8C325.401 174.8 315.701 174.4 309.401 180.1L106.001 360.8L17.7007 316.6C7.10065 311.3 0.30065 300.7 0.000649921 288.9C-0.29935 277.1 5.90065 266.1 16.1007 260.2L464.101 4.19992C474.801 -1.90008 488.001 -1.30008 498.101 5.59992Z" fill="white"/>
</g>
<defs>
<clipPath id="clip0_240_21">
<rect width="512" height="512" fill="white"/>
</clipPath>
</defs>
</svg>
