<svg width="20" height="21" viewBox="0 0 20 21" fill="none" xmlns="http://www.w3.org/2000/svg">
<path d="M6.25 6.98026C6.91304 6.98026 7.54893 6.71686 8.01777 6.24802C8.48661 5.77918 8.75 5.1433 8.75 4.48026C8.75 3.81721 8.48661 3.18133 8.01777 2.71249C7.54893 2.24365 6.91304 1.98026 6.25 1.98026C5.58696 1.98026 4.95107 2.24365 4.48223 2.71249C4.01339 3.18133 3.75 3.81721 3.75 4.48026C3.75 5.1433 4.01339 5.77918 4.48223 6.24802C4.95107 6.71686 5.58696 6.98026 6.25 6.98026ZM1.25 9.79276C1.25 9.37835 1.41462 8.98093 1.70765 8.6879C2.00067 8.39488 2.3981 8.23026 2.8125 8.23026H6.79688C6.64168 8.62872 6.5622 9.05264 6.5625 9.48026C6.5625 10.6428 7.13937 11.6709 8.02312 12.2928H6.5625C6.10545 12.2927 5.65714 12.4179 5.26629 12.6548C4.87544 12.8918 4.55701 13.2313 4.34562 13.6365C3.14813 13.3284 2.38187 12.729 1.90875 12.049C1.25 11.1021 1.25 10.1215 1.25 9.94901V9.79276ZM15.6544 13.6365C16.8519 13.3284 17.6181 12.729 18.0912 12.049C18.75 11.1021 18.75 10.1209 18.75 9.94901V9.79276C18.75 9.37835 18.5854 8.98093 18.2924 8.6879C17.9993 8.39488 17.6019 8.23026 17.1875 8.23026H13.2031C13.3544 8.61775 13.4375 9.03901 13.4375 9.48026C13.4375 10.6428 12.8606 11.6709 11.9769 12.2928H13.4375C13.8945 12.2927 14.3429 12.4179 14.7337 12.6548C15.1246 12.8918 15.443 13.2313 15.6544 13.6365ZM16.25 4.48026C16.25 5.1433 15.9866 5.77918 15.5178 6.24802C15.0489 6.71686 14.413 6.98026 13.75 6.98026C13.087 6.98026 12.4511 6.71686 11.9822 6.24802C11.5134 5.77918 11.25 5.1433 11.25 4.48026C11.25 3.81721 11.5134 3.18133 11.9822 2.71249C12.4511 2.24365 13.087 1.98026 13.75 1.98026C14.413 1.98026 15.0489 2.24365 15.5178 2.71249C15.9866 3.18133 16.25 3.81721 16.25 4.48026ZM5 14.7928C5 14.3784 5.16462 13.9809 5.45765 13.6879C5.75067 13.3949 6.1481 13.2303 6.5625 13.2303H13.4375C13.6427 13.2303 13.8459 13.2707 14.0354 13.3492C14.225 13.4277 14.3973 13.5428 14.5424 13.6879C14.6874 13.833 14.8025 14.0052 14.8811 14.1948C14.9596 14.3844 15 14.5876 15 14.7928V14.949C15 15.1209 15 16.1021 14.3412 17.049C13.6537 18.0371 12.3475 18.8553 10 18.8553C7.6525 18.8553 6.34625 18.0371 5.65875 17.049C5 16.1021 5 15.1215 5 14.949V14.7928ZM10 11.9803C10.663 11.9803 11.2989 11.7169 11.7678 11.248C12.2366 10.7792 12.5 10.1433 12.5 9.48026C12.5 8.81721 12.2366 8.18133 11.7678 7.71249C11.2989 7.24365 10.663 6.98026 10 6.98026C9.33696 6.98026 8.70107 7.24365 8.23223 7.71249C7.76339 8.18133 7.5 8.81721 7.5 9.48026C7.5 10.1433 7.76339 10.7792 8.23223 11.248C8.70107 11.7169 9.33696 11.9803 10 11.9803Z" fill="white"/>
</svg>
